<?xml version="1.0" encoding="UTF-8"?>
<!DOCTYPE svg PUBLIC "-//W3C//DTD SVG 1.1//EN" "http://www.w3.org/Graphics/SVG/1.1/DTD/svg11.dtd">
<svg xmlns="http://www.w3.org/2000/svg" version="1.1" width="512px" height="512px" style="shape-rendering:geometricPrecision; text-rendering:geometricPrecision; image-rendering:optimizeQuality; fill-rule:evenodd; clip-rule:evenodd" xmlns:xlink="http://www.w3.org/1999/xlink">
<g><path style="opacity:0.97" fill="#7cfaf9" d="M 225.5,51.5 C 238.077,49.565 245.577,54.8983 248,67.5C 248.453,70.8404 248.953,74.1738 249.5,77.5C 235.191,135.215 224.024,193.548 216,252.5C 214.922,262.135 214.255,271.801 214,281.5C 211.703,289.927 206.203,295.093 197.5,297C 191.5,297.667 185.5,297.667 179.5,297C 176.37,294.872 173.537,292.372 171,289.5C 164.333,278.833 157.667,268.167 151,257.5C 123.58,221.726 98.9138,184.059 77,144.5C 73.5679,158.329 70.9012,172.329 69,186.5C 64.144,220.491 59.4773,254.491 55,288.5C 48.3092,305.432 36.8092,309.932 20.5,302C 18.0362,298.951 16.5362,295.451 16,291.5C 15.7095,287.137 15.2095,282.804 14.5,278.5C 15.2095,274.196 15.7095,269.863 16,265.5C 26.9474,218.096 36.614,170.43 45,122.5C 46.7061,108.202 48.0395,93.8687 49,79.5C 52.7543,69.434 60.0876,64.434 71,64.5C 81.8509,64.0933 88.8509,69.0933 92,79.5C 98.5487,103.814 108.215,126.814 121,148.5C 138.707,179.196 158.374,208.529 180,236.5C 188.979,191.296 197.312,145.962 205,100.5C 206.498,89.5164 207.832,78.5164 209,67.5C 211.174,58.675 216.674,53.3417 225.5,51.5 Z"/></g>
<g><path style="opacity:0.97" fill="#7cfaf9" d="M 405.5,51.5 C 418.504,51.3334 431.504,51.5001 444.5,52C 464.189,54.9152 478.689,65.0818 488,82.5C 492.357,95.7906 491.023,108.457 484,120.5C 472.142,135.691 458.308,148.857 442.5,160C 457.089,164.606 469.589,172.44 480,183.5C 491.448,200.966 493.115,219.299 485,238.5C 465.201,271.63 437.034,294.463 400.5,307C 383.281,312.008 365.947,312.675 348.5,309C 341.915,304.532 339.748,298.365 342,290.5C 345.274,280.087 352.441,274.254 363.5,273C 379.389,274.143 394.389,271.143 408.5,264C 422.135,256.263 433.635,246.096 443,233.5C 452.124,210.912 444.957,196.079 421.5,189C 417.167,188.333 412.833,188.333 408.5,189C 401.993,192.058 395.326,194.725 388.5,197C 381.833,197.667 375.167,197.667 368.5,197C 359.771,195.07 355.771,189.57 356.5,180.5C 356.446,176.442 358.112,173.276 361.5,171C 375.167,163.437 389.167,156.437 403.5,150C 415.213,141.96 426.047,132.793 436,122.5C 440.362,117.113 443.695,111.113 446,104.5C 447.432,94.5922 443.265,88.4255 433.5,86C 409.823,84.0012 386.823,87.0012 364.5,95C 357.944,99.2784 354.778,105.445 355,113.5C 345.367,171.263 337.7,229.263 332,287.5C 330.664,293.501 327.164,297.668 321.5,300C 300.016,305.516 289.349,297.183 289.5,275C 299.588,223.722 307.254,172.055 312.5,120C 312.665,117.083 311.998,114.417 310.5,112C 296.124,112.625 289.624,105.791 291,91.5C 293.833,86 298,81.8333 303.5,79C 322.403,69.0314 342.403,62.0314 363.5,58C 377.551,55.2087 391.551,53.042 405.5,51.5 Z"/></g>
<g><path style="opacity:0.913" fill="#6efaf9" d="M 44.5,352.5 C 49.0847,351.592 51.418,353.425 51.5,358C 48.3687,366.767 44.5354,375.267 40,383.5C 39.6667,410.167 39.3333,436.833 39,463.5C 36,466.167 33,466.167 30,463.5C 29.7421,443.152 29.0754,422.818 28,402.5C 25.2943,408.078 22.461,413.578 19.5,419C 14.7979,421.039 11.7979,419.539 10.5,414.5C 20.2909,392.913 31.6242,372.246 44.5,352.5 Z"/></g>
<g><path style="opacity:0.899" fill="#6efaf9" d="M 81.5,356.5 C 84.0444,356.104 86.2111,356.771 88,358.5C 88.5868,367.183 88.4202,375.849 87.5,384.5C 98.1719,384.333 108.839,384.5 119.5,385C 123.072,387.626 123.405,390.626 120.5,394C 109.485,394.168 98.4849,394.668 87.5,395.5C 86.233,397.371 86.233,399.204 87.5,401C 91.9218,401.758 94.7551,404.258 96,408.5C 97.7142,419.679 97.5476,430.846 95.5,442C 96.1608,444.464 96.6608,446.964 97,449.5C 97.6853,452.057 99.1853,453.891 101.5,455C 105.863,455.369 110.196,455.869 114.5,456.5C 113.416,451.009 115.249,447.009 120,444.5C 123.014,444.847 124.681,446.514 125,449.5C 125.667,453.833 125.667,458.167 125,462.5C 124.626,463.416 124.126,464.25 123.5,465C 113.76,467.144 104.094,466.811 94.5,464C 89.6643,462.181 86.831,458.681 86,453.5C 85.4239,442.792 85.9239,432.125 87.5,421.5C 87.5956,417.882 86.7623,414.549 85,411.5C 80.237,432.525 71.0703,451.358 57.5,468C 54.1653,470.291 51.332,469.791 49,466.5C 48.3653,464.365 48.6986,462.365 50,460.5C 64.8769,441.398 73.7103,419.731 76.5,395.5C 67.5208,394.468 58.5208,393.635 49.5,393C 45.9154,390.472 45.582,387.472 48.5,384C 58.1782,383.467 67.8448,383.634 77.5,384.5C 77.3773,376.13 77.8773,367.797 79,359.5C 79.6979,358.309 80.5313,357.309 81.5,356.5 Z"/></g>
<g><path style="opacity:0.887" fill="#6efaf9" d="M 346.5,357.5 C 348.441,357.869 350.275,358.536 352,359.5C 353.376,364.755 354.209,370.088 354.5,375.5C 360.176,375.334 365.843,375.501 371.5,376C 377.61,376.891 378.944,379.891 375.5,385C 369.593,386.361 363.593,386.861 357.5,386.5C 358.222,397.109 360.222,407.443 363.5,417.5C 365.45,411.977 367.784,406.643 370.5,401.5C 376.755,399.585 379.589,401.918 379,408.5C 375.198,418.075 371.698,427.741 368.5,437.5C 369.164,441.325 370.331,444.992 372,448.5C 378.68,446.178 381.347,448.512 380,455.5C 378.439,458.783 376.273,461.617 373.5,464C 368.94,464.806 365.774,462.973 364,458.5C 362.275,455.326 360.942,451.993 360,448.5C 355.167,454 350.333,459.5 345.5,465C 338.259,466.418 335.926,463.584 338.5,456.5C 345.545,449.628 351.212,441.794 355.5,433C 352.29,421.995 349.79,410.828 348,399.5C 347.942,408.268 347.275,416.935 346,425.5C 339.916,426.642 333.749,426.809 327.5,426C 324.633,425.971 322.133,425.138 320,423.5C 318.727,414.528 318.394,405.528 319,396.5C 319.75,395.874 320.584,395.374 321.5,395C 328.833,394.333 336.167,394.333 343.5,395C 345.061,395.318 346.228,396.151 347,397.5C 347.114,394.167 346.781,390.834 346,387.5C 336.244,386.68 326.41,386.18 316.5,386C 313.918,383.042 313.918,380.042 316.5,377C 325.459,375.783 334.459,375.283 343.5,375.5C 343.248,371.233 342.581,367.066 341.5,363C 342.015,359.989 343.682,358.156 346.5,357.5 Z M 326.5,403.5 C 330.833,403.5 335.167,403.5 339.5,403.5C 339.827,408.544 339.494,413.544 338.5,418.5C 334.906,417.574 331.24,417.241 327.5,417.5C 327.331,412.819 326.998,408.152 326.5,403.5 Z"/></g>
<g><path style="opacity:0.831" fill="#6efaf9" d="M 359.5,357.5 C 361.696,357.565 363.696,358.232 365.5,359.5C 367.333,361.833 369.167,364.167 371,366.5C 371.433,375.039 368.1,376.706 361,371.5C 358.665,368.834 356.831,365.834 355.5,362.5C 356.246,361.264 356.579,359.93 356.5,358.5C 357.791,358.737 358.791,358.404 359.5,357.5 Z"/></g>
<g><path style="opacity:0.839" fill="#6efaf9" d="M 95.5,359.5 C 97.5273,359.338 99.5273,359.505 101.5,360C 106.573,363.888 110.24,368.721 112.5,374.5C 111.988,379.752 109.321,381.419 104.5,379.5C 101.559,375.056 98.059,371.056 94,367.5C 93.1093,364.502 93.6093,361.836 95.5,359.5 Z"/></g>
<g><path style="opacity:0.897" fill="#6efaf9" d="M 209.5,360.5 C 211.827,360.665 213.993,361.331 216,362.5C 217.195,366.751 217.695,371.085 217.5,375.5C 223.842,375.334 230.175,375.5 236.5,376C 239.527,379.866 238.861,382.866 234.5,385C 228.509,385.499 222.509,385.666 216.5,385.5C 216.5,388.833 216.5,392.167 216.5,395.5C 223.871,395.765 231.204,395.431 238.5,394.5C 243.308,396.098 244.642,399.264 242.5,404C 236.026,406.128 229.359,406.961 222.5,406.5C 222.895,412.591 223.728,418.591 225,424.5C 227.424,428.432 230.924,430.432 235.5,430.5C 235.933,427.834 236.433,425.168 237,422.5C 239.132,419.645 241.632,419.145 244.5,421C 245.167,422.333 245.833,423.667 246.5,425C 245.703,428.745 245.203,432.579 245,436.5C 244.682,438.061 243.849,439.228 242.5,440C 226.21,443.785 216.377,437.618 213,421.5C 212.501,416.511 212.334,411.511 212.5,406.5C 210.5,406.5 208.5,406.5 206.5,406.5C 204.978,420.044 199.311,431.544 189.5,441C 184.776,444.638 181.443,443.638 179.5,438C 179.625,436.373 180.125,434.873 181,433.5C 189.114,426.387 194.28,417.554 196.5,407C 192.199,407.363 187.866,407.363 183.5,407C 181.271,404.447 180.938,401.614 182.5,398.5C 183.376,397.749 184.376,397.249 185.5,397C 192.184,396.61 198.85,396.11 205.5,395.5C 205.82,392.102 205.487,388.768 204.5,385.5C 200.841,386.101 197.174,386.767 193.5,387.5C 191.714,392.18 188.381,393.68 183.5,392C 182.57,390.806 181.903,389.473 181.5,388C 184.139,381.221 186.639,374.388 189,367.5C 197.642,364.141 200.475,366.974 197.5,376C 200.146,376.497 202.813,376.664 205.5,376.5C 206.065,371.851 206.565,367.184 207,362.5C 207.995,361.934 208.828,361.267 209.5,360.5 Z"/></g>
<g><path style="opacity:0.842" fill="#6efaf9" d="M 151.5,361.5 C 153.199,361.34 154.866,361.506 156.5,362C 160.706,364.602 165.039,366.936 169.5,369C 171.729,371.553 172.062,374.386 170.5,377.5C 168.809,379.256 166.809,379.756 164.5,379C 159.508,376.839 154.841,374.172 150.5,371C 147.765,367.508 148.098,364.342 151.5,361.5 Z"/></g>
<g><path style="opacity:0.895" fill="#6efaf9" d="M 423.5,361.5 C 440.17,361.333 456.837,361.5 473.5,362C 475.444,364.153 475.944,366.653 475,369.5C 473.333,372.833 471.667,376.167 470,379.5C 462.622,389.756 455.122,399.922 447.5,410C 464.074,410.174 480.574,410.674 497,411.5C 497.833,427.51 497.666,443.51 496.5,459.5C 479.211,460.652 461.877,460.819 444.5,460C 442.872,456.397 442.038,452.563 442,448.5C 441.592,438.815 440.925,429.148 440,419.5C 430.167,429.333 420.333,439.167 410.5,449C 408.557,450.555 406.39,451.722 404,452.5C 398.791,450.745 397.457,447.412 400,442.5C 411.038,432.628 421.538,422.294 431.5,411.5C 427.928,408.464 424.095,405.797 420,403.5C 417.781,397.07 419.947,394.237 426.5,395C 430.641,396.572 434.308,398.905 437.5,402C 438.5,402.667 439.5,402.667 440.5,402C 448.14,393.192 454.806,383.692 460.5,373.5C 450.862,372.198 441.195,371.698 431.5,372C 427.482,379.704 422.482,386.704 416.5,393C 410.221,396.231 407.387,394.398 408,387.5C 413.43,378.971 418.596,370.304 423.5,361.5 Z M 451.5,421.5 C 463.5,421.5 475.5,421.5 487.5,421.5C 487,430.826 486.667,440.159 486.5,449.5C 475.5,449.5 464.5,449.5 453.5,449.5C 452.613,440.19 451.946,430.856 451.5,421.5 Z"/></g>
<g><path style="opacity:0.896" fill="#6efaf9" d="M 288.5,370.5 C 291.368,370.085 293.535,371.085 295,373.5C 295.499,377.821 295.666,382.154 295.5,386.5C 300.511,386.334 305.511,386.501 310.5,387C 312.852,387.576 313.852,389.076 313.5,391.5C 313.695,393.725 312.861,395.391 311,396.5C 305.837,397.096 300.67,397.762 295.5,398.5C 294.529,407.112 294.196,415.779 294.5,424.5C 300.265,424.563 305.932,423.897 311.5,422.5C 315.77,424.64 317.103,427.973 315.5,432.5C 300.604,435.356 285.604,437.356 270.5,438.5C 264.684,436.877 263.351,433.543 266.5,428.5C 272.135,427.669 277.801,427.002 283.5,426.5C 283.518,416.82 283.852,407.153 284.5,397.5C 279.489,397.666 274.489,397.499 269.5,397C 265.17,392.657 265.837,389.324 271.5,387C 275.821,386.501 280.154,386.334 284.5,386.5C 284.334,382.486 284.501,378.486 285,374.5C 285.69,372.65 286.856,371.316 288.5,370.5 Z"/></g>
<g><path style="opacity:0.909" fill="#6efaf9" d="M 143.5,393.5 C 154.505,393.333 165.505,393.5 176.5,394C 177.293,395.085 177.96,396.252 178.5,397.5C 174.56,403.948 170.394,410.281 166,416.5C 165.333,418.833 165.333,421.167 166,423.5C 168.824,427.977 170.657,432.81 171.5,438C 170.932,441.2 170.265,444.367 169.5,447.5C 178.791,449.427 188.125,451.261 197.5,453C 213.396,453.927 229.23,453.427 245,451.5C 249.206,452.593 250.539,455.26 249,459.5C 247.681,461.487 245.848,462.654 243.5,463C 227.167,463.667 210.833,463.667 194.5,463C 183.467,460.992 172.467,458.825 161.5,456.5C 156.509,456.914 151.676,457.914 147,459.5C 141.977,458.416 140.31,455.416 142,450.5C 146.602,447.627 151.436,445.127 156.5,443C 158.357,441.818 159.357,440.151 159.5,438C 156.949,432.236 155.283,426.236 154.5,420C 154.657,414.362 156.323,409.196 159.5,404.5C 154.104,404.201 148.771,403.701 143.5,403C 140.888,399.836 140.888,396.669 143.5,393.5 Z"/></g>
<g><path style="opacity:0.853" fill="#6efaf9" d="M 337.5,434.5 C 340.518,434.335 343.518,434.502 346.5,435C 348.059,437.642 347.725,439.975 345.5,442C 337.521,443.307 329.521,444.473 321.5,445.5C 316.116,445.534 314.45,443.034 316.5,438C 323.664,436.956 330.664,435.789 337.5,434.5 Z"/></g>
</svg>
